<svg width="134" height="50" viewBox="0 0 134 50" fill="none" xmlns="http://www.w3.org/2000/svg">
<g filter="url(#filter0_d_9_10)">
<path d="M64.5959 17.2505L63.4005 19.5843C62.0912 18.8443 60.7251 18.4174 59.7289 18.4174C58.932 18.4174 58.3343 18.6735 58.3343 19.2997C58.3343 21.1213 64.6813 20.182 64.6528 24.4513C64.6528 26.899 62.4897 28.2083 59.7574 28.2083C57.8219 28.2083 55.915 27.6391 54.5488 26.529L55.6588 24.1952C56.9112 25.1629 58.5335 25.7036 59.8427 25.7036C60.7251 25.7036 61.3512 25.419 61.3512 24.7644C61.3512 22.829 55.1181 23.8821 55.1181 19.6413C55.1181 17.1651 57.2527 15.8843 59.8712 15.8843C61.5505 15.9127 63.2582 16.3966 64.5959 17.2505Z" fill="white"/>
<path d="M79.1398 20.5519V28.1227H75.6959V21.5765C75.6959 20.068 74.8136 19.1288 73.3336 19.1288C71.6259 19.1572 70.5728 20.438 70.5728 22.2027V28.1227H67.1289V11.501H70.5728V18.1895C71.4267 16.681 72.8498 15.941 74.7282 15.941C77.4037 15.941 79.1398 17.7341 79.1398 20.5519Z" fill="white"/>
<path d="M93.9406 22.09C93.9406 25.7616 91.3506 28.2378 87.5082 28.2378C83.6374 28.2378 81.0474 25.7616 81.0474 22.09C81.0474 18.39 83.6374 15.9707 87.5082 15.9707C91.3506 15.9707 93.9406 18.39 93.9406 22.09ZM84.4913 22.1469C84.4913 24.1108 85.6867 25.4485 87.4798 25.4485C89.2444 25.4485 90.4683 24.1108 90.4683 22.1469C90.4683 20.1831 89.2444 18.8454 87.4798 18.8454C85.7151 18.8169 84.4913 20.1546 84.4913 22.1469Z" fill="white"/>
<path d="M109.225 22.1469C109.225 25.7901 107.005 28.2378 103.647 28.2378C101.967 28.2378 100.658 27.5547 99.7759 26.3593V32.4502H96.332V16.0846H99.7759V17.8492C100.63 16.6538 101.939 15.9707 103.59 15.9707C106.948 15.9707 109.225 18.4469 109.225 22.1469ZM105.753 22.0331C105.753 20.0977 104.558 18.7315 102.764 18.7315C101 18.7315 99.7759 20.0977 99.7759 22.0331C99.7759 24.0254 101 25.3631 102.764 25.3631C104.529 25.3916 105.753 24.0254 105.753 22.0331Z" fill="white"/>
<path d="M115.088 12.6405C115.088 13.7505 114.319 14.5759 113.238 14.5759C112.156 14.5759 111.388 13.779 111.388 12.6405C111.388 11.5305 112.156 10.7051 113.238 10.7051C114.319 10.7335 115.088 11.5305 115.088 12.6405ZM111.502 28.0953V16.0844H114.945V28.1238H111.502V28.0953Z" fill="white"/>
<path d="M124.082 29.4621C123.228 31.5967 121.748 32.6213 119.67 32.6213C118.389 32.6213 117.393 32.2513 116.397 31.4544L117.849 28.9782C118.389 29.4336 118.845 29.6328 119.414 29.6328C120.126 29.6328 120.666 29.2628 121.008 28.5513L121.349 27.8682L116.369 16.085H119.926L123.086 24.3674L125.932 16.085H129.376L124.082 29.4621Z" fill="white"/>
<path opacity="0.8" d="M34.6544 32.1647C40.2975 32.1647 44.8722 27.59 44.8722 21.9468C44.8722 16.3037 40.2975 11.729 34.6544 11.729C29.0112 11.729 24.4365 16.3037 24.4365 21.9468C24.4365 27.59 29.0112 32.1647 34.6544 32.1647Z" fill="#8338EC"/>
<path opacity="0.8" d="M14.2178 32.1647C19.861 32.1647 24.4357 27.59 24.4357 21.9468C24.4357 16.3037 19.861 11.729 14.2178 11.729C8.57468 11.729 4 16.3037 4 21.9468C4 27.59 8.57468 32.1647 14.2178 32.1647Z" fill="#3A86FF"/>
<path opacity="0.8" d="M24.4351 21.3771C30.0783 21.3771 34.653 16.8024 34.653 11.1592C34.653 5.51609 30.0783 0.941406 24.4351 0.941406C18.792 0.941406 14.2173 5.51609 14.2173 11.1592C14.2173 16.8024 18.792 21.3771 24.4351 21.3771Z" fill="#FFBE0B"/>
<path opacity="0.8" d="M24.4351 41.6696C30.0783 41.6696 34.653 37.0949 34.653 31.4517C34.653 25.8086 30.0783 21.2339 24.4351 21.2339C18.792 21.2339 14.2173 25.8086 14.2173 31.4517C14.2173 37.0949 18.792 41.6696 24.4351 41.6696Z" fill="#FB5607"/>
</g>
<defs>
<filter id="filter0_d_9_10" x="0" y="0.941406" width="133.376" height="48.728" filterUnits="userSpaceOnUse" color-interpolation-filters="sRGB">
<feFlood flood-opacity="0" result="BackgroundImageFix"/>
<feColorMatrix in="SourceAlpha" type="matrix" values="0 0 0 0 0 0 0 0 0 0 0 0 0 0 0 0 0 0 127 0" result="hardAlpha"/>
<feOffset dy="4"/>
<feGaussianBlur stdDeviation="2"/>
<feComposite in2="hardAlpha" operator="out"/>
<feColorMatrix type="matrix" values="0 0 0 0 0 0 0 0 0 0 0 0 0 0 0 0 0 0 0.25 0"/>
<feBlend mode="normal" in2="BackgroundImageFix" result="effect1_dropShadow_9_10"/>
<feBlend mode="normal" in="SourceGraphic" in2="effect1_dropShadow_9_10" result="shape"/>
</filter>
</defs>
</svg>
